{
	"asset":{
		"generator":"Khronos glTF Blender I/O v4.1.63",
		"version":"2.0"
	},
	"scene":0,
	"scenes":[
		{
			"name":"Scene",
			"nodes":[
				0
			]
		}
	],
	"nodes":[
		{
			"mesh":0,
			"name":"GrenadeSmoke",
			"rotation":[
				0.05819816142320633,
				-0.18698540329933167,
				0.09097863733768463,
				0.9764078855514526
			],
			"translation":[
				-0.49708348512649536,
				0.7216624021530151,
				-0.008603338152170181
			]
		}
	],
	"materials":[
		{
			"doubleSided":true,
			"name":"WeaponSolids",
			"pbrMetallicRoughness":{
				"baseColorTexture":{
					"index":0
				},
				"metallicFactor":0,
				"roughnessFactor":0.5
			}
		},
		{
			"name":"SolidifyOutline",
			"pbrMetallicRoughness":{}
		}
	],
	"meshes":[
		{
			"name":"Cube.003",
			"primitives":[
				{
					"attributes":{
						"POSITION":0,
						"NORMAL":1,
						"TEXCOORD_0":2
					},
					"indices":3,
					"material":0
				},
				{
					"attributes":{
						"POSITION":4,
						"NORMAL":5,
						"TEXCOORD_0":6
					},
					"indices":7,
					"material":1
				}
			]
		}
	],
	"textures":[
		{
			"sampler":0,
			"source":0
		}
	],
	"images":[
		{
			"mimeType":"image/png",
			"name":"palettething",
			"uri":"textures/palettething.png"
		}
	],
	"accessors":[
		{
			"bufferView":0,
			"componentType":5126,
			"count":208,
			"max":[
				0.015216990374028683,
				0.03602582961320877,
				0.016000090166926384
			],
			"min":[
				-0.015216990374028683,
				-0.02600003033876419,
				-0.02269728109240532
			],
			"type":"VEC3"
		},
		{
			"bufferView":1,
			"componentType":5126,
			"count":208,
			"type":"VEC3"
		},
		{
			"bufferView":2,
			"componentType":5126,
			"count":208,
			"type":"VEC2"
		},
		{
			"bufferView":3,
			"componentType":5123,
			"count":408,
			"type":"SCALAR"
		},
		{
			"bufferView":4,
			"componentType":5126,
			"count":260,
			"max":[
				0.01667262800037861,
				0.037919849157333374,
				0.017530636861920357
			],
			"min":[
				-0.01667262800037861,
				-0.027287455275654793,
				-0.024482455104589462
			],
			"type":"VEC3"
		},
		{
			"bufferView":5,
			"componentType":5126,
			"count":260,
			"type":"VEC3"
		},
		{
			"bufferView":6,
			"componentType":5126,
			"count":260,
			"type":"VEC2"
		},
		{
			"bufferView":7,
			"componentType":5123,
			"count":408,
			"type":"SCALAR"
		}
	],
	"bufferViews":[
		{
			"buffer":0,
			"byteLength":2496,
			"byteOffset":0,
			"target":34962
		},
		{
			"buffer":0,
			"byteLength":2496,
			"byteOffset":2496,
			"target":34962
		},
		{
			"buffer":0,
			"byteLength":1664,
			"byteOffset":4992,
			"target":34962
		},
		{
			"buffer":0,
			"byteLength":816,
			"byteOffset":6656,
			"target":34963
		},
		{
			"buffer":0,
			"byteLength":3120,
			"byteOffset":7472,
			"target":34962
		},
		{
			"buffer":0,
			"byteLength":3120,
			"byteOffset":10592,
			"target":34962
		},
		{
			"buffer":0,
			"byteLength":2080,
			"byteOffset":13712,
			"target":34962
		},
		{
			"buffer":0,
			"byteLength":816,
			"byteOffset":15792,
			"target":34963
		}
	],
	"samplers":[
		{
			"magFilter":9728,
			"minFilter":9984
		}
	],
	"buffers":[
		{
			"byteLength":16608,
			"uri":"GrenadeSmokeSeparate.bin"
		}
	]
}
