{
	"asset":{
		"generator":"Khronos glTF Blender I/O v4.1.63",
		"version":"2.0"
	},
	"scene":0,
	"scenes":[
		{
			"name":"Scene",
			"nodes":[
				0
			]
		}
	],
	"nodes":[
		{
			"mesh":0,
			"name":"GrenadeFrag",
			"rotation":[
				0.05819816142320633,
				-0.18698540329933167,
				0.09097863733768463,
				0.9764078855514526
			],
			"translation":[
				-0.49708348512649536,
				0.7216624021530151,
				-0.008603338152170181
			]
		}
	],
	"materials":[
		{
			"doubleSided":true,
			"name":"WeaponSolids",
			"pbrMetallicRoughness":{
				"baseColorTexture":{
					"index":0
				},
				"metallicFactor":0,
				"roughnessFactor":0.5
			}
		},
		{
			"name":"SolidifyOutline",
			"pbrMetallicRoughness":{}
		}
	],
	"meshes":[
		{
			"name":"Cube.005",
			"primitives":[
				{
					"attributes":{
						"POSITION":0,
						"NORMAL":1,
						"TEXCOORD_0":2
					},
					"indices":3,
					"material":0
				},
				{
					"attributes":{
						"POSITION":4,
						"NORMAL":5,
						"TEXCOORD_0":6
					},
					"indices":7,
					"material":1
				}
			]
		}
	],
	"textures":[
		{
			"sampler":0,
			"source":0
		}
	],
	"images":[
		{
			"mimeType":"image/png",
			"name":"palettething",
			"uri":"textures/palettething.png"
		}
	],
	"accessors":[
		{
			"bufferView":0,
			"componentType":5126,
			"count":314,
			"max":[
				0.01976730115711689,
				0.030254526063799858,
				0.021931760013103485
			],
			"min":[
				-0.020607037469744682,
				-0.025145594030618668,
				-0.03146901726722717
			],
			"type":"VEC3"
		},
		{
			"bufferView":1,
			"componentType":5126,
			"count":314,
			"type":"VEC3"
		},
		{
			"bufferView":2,
			"componentType":5126,
			"count":314,
			"type":"VEC2"
		},
		{
			"bufferView":3,
			"componentType":5123,
			"count":528,
			"type":"SCALAR"
		},
		{
			"bufferView":4,
			"componentType":5126,
			"count":340,
			"max":[
				0.021633034572005272,
				0.03219805285334587,
				0.023893509060144424
			],
			"min":[
				-0.022472770884633064,
				-0.026718994602560997,
				-0.033415284007787704
			],
			"type":"VEC3"
		},
		{
			"bufferView":5,
			"componentType":5126,
			"count":340,
			"type":"VEC3"
		},
		{
			"bufferView":6,
			"componentType":5126,
			"count":340,
			"type":"VEC2"
		},
		{
			"bufferView":7,
			"componentType":5123,
			"count":528,
			"type":"SCALAR"
		}
	],
	"bufferViews":[
		{
			"buffer":0,
			"byteLength":3768,
			"byteOffset":0,
			"target":34962
		},
		{
			"buffer":0,
			"byteLength":3768,
			"byteOffset":3768,
			"target":34962
		},
		{
			"buffer":0,
			"byteLength":2512,
			"byteOffset":7536,
			"target":34962
		},
		{
			"buffer":0,
			"byteLength":1056,
			"byteOffset":10048,
			"target":34963
		},
		{
			"buffer":0,
			"byteLength":4080,
			"byteOffset":11104,
			"target":34962
		},
		{
			"buffer":0,
			"byteLength":4080,
			"byteOffset":15184,
			"target":34962
		},
		{
			"buffer":0,
			"byteLength":2720,
			"byteOffset":19264,
			"target":34962
		},
		{
			"buffer":0,
			"byteLength":1056,
			"byteOffset":21984,
			"target":34963
		}
	],
	"samplers":[
		{
			"magFilter":9728,
			"minFilter":9984
		}
	],
	"buffers":[
		{
			"byteLength":23040,
			"uri":"GrenadeFragSeparate.bin"
		}
	]
}
