{
	"asset":{
		"generator":"Khronos glTF Blender I/O v4.1.63",
		"version":"2.0"
	},
	"scene":0,
	"scenes":[
		{
			"name":"Scene",
			"nodes":[
				0
			]
		}
	],
	"nodes":[
		{
			"mesh":0,
			"name":"Pistol",
			"rotation":[
				0.5445653796195984,
				-0.4673525094985962,
				-0.49530547857284546,
				0.489594429731369
			],
			"translation":[
				-0.4884739816188812,
				0.7148529887199402,
				-0.02693311497569084
			]
		}
	],
	"materials":[
		{
			"doubleSided":true,
			"name":"WeaponSolids",
			"pbrMetallicRoughness":{
				"baseColorTexture":{
					"index":0
				},
				"metallicFactor":0,
				"roughnessFactor":0.5
			}
		},
		{
			"name":"SolidifyOutline",
			"pbrMetallicRoughness":{}
		}
	],
	"meshes":[
		{
			"name":"Cube.001",
			"primitives":[
				{
					"attributes":{
						"POSITION":0,
						"NORMAL":1,
						"TEXCOORD_0":2
					},
					"indices":3,
					"material":0
				},
				{
					"attributes":{
						"POSITION":4,
						"NORMAL":5,
						"TEXCOORD_0":6
					},
					"indices":7,
					"material":1
				}
			]
		}
	],
	"textures":[
		{
			"sampler":0,
			"source":0
		}
	],
	"images":[
		{
			"mimeType":"image/png",
			"name":"palettething",
			"uri":"textures/palettething.png"
		}
	],
	"accessors":[
		{
			"bufferView":0,
			"componentType":5126,
			"count":501,
			"max":[
				0.008166802115738392,
				0.04658714681863785,
				0.08216542750597
			],
			"min":[
				-0.008166729472577572,
				-0.02654699981212616,
				-0.021347951143980026
			],
			"type":"VEC3"
		},
		{
			"bufferView":1,
			"componentType":5126,
			"count":501,
			"type":"VEC3"
		},
		{
			"bufferView":2,
			"componentType":5126,
			"count":501,
			"type":"VEC2"
		},
		{
			"bufferView":3,
			"componentType":5123,
			"count":912,
			"type":"SCALAR"
		},
		{
			"bufferView":4,
			"componentType":5126,
			"count":572,
			"max":[
				0.009940244257450104,
				0.04826999083161354,
				0.08345423638820648
			],
			"min":[
				-0.009940171614289284,
				-0.027950715273618698,
				-0.022869674488902092
			],
			"type":"VEC3"
		},
		{
			"bufferView":5,
			"componentType":5126,
			"count":572,
			"type":"VEC3"
		},
		{
			"bufferView":6,
			"componentType":5126,
			"count":572,
			"type":"VEC2"
		},
		{
			"bufferView":7,
			"componentType":5123,
			"count":912,
			"type":"SCALAR"
		}
	],
	"bufferViews":[
		{
			"buffer":0,
			"byteLength":6012,
			"byteOffset":0,
			"target":34962
		},
		{
			"buffer":0,
			"byteLength":6012,
			"byteOffset":6012,
			"target":34962
		},
		{
			"buffer":0,
			"byteLength":4008,
			"byteOffset":12024,
			"target":34962
		},
		{
			"buffer":0,
			"byteLength":1824,
			"byteOffset":16032,
			"target":34963
		},
		{
			"buffer":0,
			"byteLength":6864,
			"byteOffset":17856,
			"target":34962
		},
		{
			"buffer":0,
			"byteLength":6864,
			"byteOffset":24720,
			"target":34962
		},
		{
			"buffer":0,
			"byteLength":4576,
			"byteOffset":31584,
			"target":34962
		},
		{
			"buffer":0,
			"byteLength":1824,
			"byteOffset":36160,
			"target":34963
		}
	],
	"samplers":[
		{
			"magFilter":9728,
			"minFilter":9984
		}
	],
	"buffers":[
		{
			"byteLength":37984,
			"uri":"PistolSeparate.bin"
		}
	]
}
