{
	"asset":{
		"generator":"Khronos glTF Blender I/O v4.1.63",
		"version":"2.0"
	},
	"scene":0,
	"scenes":[
		{
			"name":"Scene",
			"nodes":[
				0
			]
		}
	],
	"nodes":[
		{
			"mesh":0,
			"name":"Rifle",
			"rotation":[
				0.5775819420814514,
				-0.4175127446651459,
				-0.48671406507492065,
				0.5051649212837219
			],
			"translation":[
				-0.4942178726196289,
				0.7016345262527466,
				-0.030094752088189125
			]
		}
	],
	"materials":[
		{
			"doubleSided":true,
			"name":"WeaponSolids",
			"pbrMetallicRoughness":{
				"baseColorTexture":{
					"index":0
				},
				"metallicFactor":0,
				"roughnessFactor":0.5
			}
		},
		{
			"name":"SolidifyOutline",
			"pbrMetallicRoughness":{}
		}
	],
	"meshes":[
		{
			"name":"Cube.002",
			"primitives":[
				{
					"attributes":{
						"POSITION":0,
						"NORMAL":1,
						"TEXCOORD_0":2
					},
					"indices":3,
					"material":0
				},
				{
					"attributes":{
						"POSITION":4,
						"NORMAL":5,
						"TEXCOORD_0":6
					},
					"indices":7,
					"material":1
				}
			]
		}
	],
	"textures":[
		{
			"sampler":0,
			"source":0
		}
	],
	"images":[
		{
			"mimeType":"image/png",
			"name":"palettething",
			"uri":"textures/palettething.png"
		}
	],
	"accessors":[
		{
			"bufferView":0,
			"componentType":5126,
			"count":454,
			"max":[
				0.014542919583618641,
				0.06971859931945801,
				0.228327214717865
			],
			"min":[
				-0.014878147281706333,
				-0.06357350200414658,
				-0.1773911416530609
			],
			"type":"VEC3"
		},
		{
			"bufferView":1,
			"componentType":5126,
			"count":454,
			"type":"VEC3"
		},
		{
			"bufferView":2,
			"componentType":5126,
			"count":454,
			"type":"VEC2"
		},
		{
			"bufferView":3,
			"componentType":5123,
			"count":948,
			"type":"SCALAR"
		},
		{
			"bufferView":4,
			"componentType":5126,
			"count":586,
			"max":[
				0.015734558925032616,
				0.0711112916469574,
				0.22960416972637177
			],
			"min":[
				-0.016069786623120308,
				-0.06479781121015549,
				-0.17877693474292755
			],
			"type":"VEC3"
		},
		{
			"bufferView":5,
			"componentType":5126,
			"count":586,
			"type":"VEC3"
		},
		{
			"bufferView":6,
			"componentType":5126,
			"count":586,
			"type":"VEC2"
		},
		{
			"bufferView":7,
			"componentType":5123,
			"count":948,
			"type":"SCALAR"
		}
	],
	"bufferViews":[
		{
			"buffer":0,
			"byteLength":5448,
			"byteOffset":0,
			"target":34962
		},
		{
			"buffer":0,
			"byteLength":5448,
			"byteOffset":5448,
			"target":34962
		},
		{
			"buffer":0,
			"byteLength":3632,
			"byteOffset":10896,
			"target":34962
		},
		{
			"buffer":0,
			"byteLength":1896,
			"byteOffset":14528,
			"target":34963
		},
		{
			"buffer":0,
			"byteLength":7032,
			"byteOffset":16424,
			"target":34962
		},
		{
			"buffer":0,
			"byteLength":7032,
			"byteOffset":23456,
			"target":34962
		},
		{
			"buffer":0,
			"byteLength":4688,
			"byteOffset":30488,
			"target":34962
		},
		{
			"buffer":0,
			"byteLength":1896,
			"byteOffset":35176,
			"target":34963
		}
	],
	"samplers":[
		{
			"magFilter":9728,
			"minFilter":9984
		}
	],
	"buffers":[
		{
			"byteLength":37072,
			"uri":"RifleSeparate.bin"
		}
	]
}
