{
	"asset":{
		"generator":"Khronos glTF Blender I/O v4.1.63",
		"version":"2.0"
	},
	"scene":0,
	"scenes":[
		{
			"name":"Scene",
			"nodes":[
				0
			]
		}
	],
	"nodes":[
		{
			"mesh":0,
			"name":"Shotgun",
			"rotation":[
				0.5493122935295105,
				-0.46371322870254517,
				-0.43074309825897217,
				0.5456066131591797
			],
			"translation":[
				-0.495614230632782,
				0.7009978890419006,
				-0.037376437336206436
			]
		}
	],
	"materials":[
		{
			"doubleSided":true,
			"name":"WeaponSolids",
			"pbrMetallicRoughness":{
				"baseColorTexture":{
					"index":0
				},
				"metallicFactor":0,
				"roughnessFactor":0.5
			}
		},
		{
			"name":"SolidifyOutline",
			"pbrMetallicRoughness":{}
		}
	],
	"meshes":[
		{
			"name":"Cube.004",
			"primitives":[
				{
					"attributes":{
						"POSITION":0,
						"NORMAL":1,
						"TEXCOORD_0":2
					},
					"indices":3,
					"material":0
				},
				{
					"attributes":{
						"POSITION":4,
						"NORMAL":5,
						"TEXCOORD_0":6
					},
					"indices":7,
					"material":1
				}
			]
		}
	],
	"textures":[
		{
			"sampler":0,
			"source":0
		}
	],
	"images":[
		{
			"mimeType":"image/png",
			"name":"palettething",
			"uri":"textures/palettething.png"
		}
	],
	"accessors":[
		{
			"bufferView":0,
			"componentType":5126,
			"count":415,
			"max":[
				0.014542927034199238,
				0.04956652969121933,
				0.24215970933437347
			],
			"min":[
				-0.0148781668394804,
				-0.05092315003275871,
				-0.22715847194194794
			],
			"type":"VEC3"
		},
		{
			"bufferView":1,
			"componentType":5126,
			"count":415,
			"type":"VEC3"
		},
		{
			"bufferView":2,
			"componentType":5126,
			"count":415,
			"type":"VEC2"
		},
		{
			"bufferView":3,
			"componentType":5123,
			"count":816,
			"type":"SCALAR"
		},
		{
			"bufferView":4,
			"componentType":5126,
			"count":542,
			"max":[
				0.016133807599544525,
				0.050985511392354965,
				0.24355120956897736
			],
			"min":[
				-0.01646902970969677,
				-0.0521501861512661,
				-0.22824884951114655
			],
			"type":"VEC3"
		},
		{
			"bufferView":5,
			"componentType":5126,
			"count":542,
			"type":"VEC3"
		},
		{
			"bufferView":6,
			"componentType":5126,
			"count":542,
			"type":"VEC2"
		},
		{
			"bufferView":7,
			"componentType":5123,
			"count":816,
			"type":"SCALAR"
		}
	],
	"bufferViews":[
		{
			"buffer":0,
			"byteLength":4980,
			"byteOffset":0,
			"target":34962
		},
		{
			"buffer":0,
			"byteLength":4980,
			"byteOffset":4980,
			"target":34962
		},
		{
			"buffer":0,
			"byteLength":3320,
			"byteOffset":9960,
			"target":34962
		},
		{
			"buffer":0,
			"byteLength":1632,
			"byteOffset":13280,
			"target":34963
		},
		{
			"buffer":0,
			"byteLength":6504,
			"byteOffset":14912,
			"target":34962
		},
		{
			"buffer":0,
			"byteLength":6504,
			"byteOffset":21416,
			"target":34962
		},
		{
			"buffer":0,
			"byteLength":4336,
			"byteOffset":27920,
			"target":34962
		},
		{
			"buffer":0,
			"byteLength":1632,
			"byteOffset":32256,
			"target":34963
		}
	],
	"samplers":[
		{
			"magFilter":9728,
			"minFilter":9984
		}
	],
	"buffers":[
		{
			"byteLength":33888,
			"uri":"ShotgunSeparate.bin"
		}
	]
}
